simulation
nRows=49
nColumns=15
endheader
time  TH_x TH_y TH_z SC_y  SC_z  SC_x  AC_y  AC_z  AC_x  GH_y  GH_z  GH_yy  EL_x  PS_y
0.000000  0.000000  0.000000  0.000000  -2.631622  -12.796928  -16.733726  57.919253  17.688903  -1.550833  34.398238  40.711746  -28.081571  18.837146  90.405137
0.000635  0.000000  0.000000  0.000000  -2.631622  -12.796928  -12.448012  58.560732  14.044404  -3.895641  34.398238  40.711746  -28.081571  18.837146  90.405137
0.001271  0.000000  0.000000  0.000000  -2.631622  -12.796928  -8.162298  59.041403  10.378024  -6.166700  34.398238  40.711746  -28.081571  18.837146  90.405137
0.001906  0.000000  0.000000  0.000000  -2.631622  -12.796928  -3.876583  59.370914  6.696066  -8.384977  34.398238  40.711746  -28.081571  18.837146  90.405137
0.002541  0.000000  0.000000  0.000000  -2.631622  -12.796928  0.409131  59.555773  3.004313  -10.569951  34.398238  40.711746  -28.081571  18.837146  90.405137
0.003177  0.000000  0.000000  0.000000  -2.631622  -12.796928  4.694845  59.599594  -0.691766  -12.740170  34.398238  40.711746  -28.081571  18.837146  90.405137
0.003812  0.000000  0.000000  0.000000  -2.631622  -12.796928  8.980560  59.503232  -4.386861  -14.913781  34.398238  40.711746  -28.081571  18.837146  90.405137
0.004447  0.000000  0.000000  0.000000  -2.631622  -12.796928  13.266274  59.264806  -8.075599  -17.109014  34.398238  40.711746  -28.081571  18.837146  90.405137
0.005083  0.000000  0.000000  0.000000  -2.631622  -12.796928  17.551988  58.879644  -11.752427  -19.344695  34.398238  40.711746  -28.081571  18.837146  90.405137
0.005718  0.000000  0.000000  0.000000  -2.631622  -12.796928  21.837702  58.340093  -15.411390  -21.640802  34.398238  40.711746  -28.081571  18.837146  90.405137
0.006353  0.000000  0.000000  0.000000  -2.631622  -12.796928  26.123417  57.635253  -19.045939  -24.019008  34.398238  40.711746  -28.081571  18.837146  90.405137
0.006989  0.000000  0.000000  0.000000  -2.631622  -12.796928  30.409131  56.750572  -22.648685  -26.503343  34.398238  40.711746  -28.081571  18.837146  90.405137
0.007624  0.000000  0.000000  0.000000  -2.631622  -12.796928  34.694845  55.667329  -26.211091  -29.120922  34.398238  40.711746  -28.081571  18.837146  90.405137
0.008259  0.000000  0.000000  0.000000  -2.631622  -12.796928  38.980560  54.361939  -29.723127  -31.902755  34.398238  40.711746  -28.081571  18.837146  90.405137
0.008895  0.000000  0.000000  0.000000  -2.631622  -12.796928  43.266274  52.805238  -33.172829  -34.884660  34.398238  40.711746  -28.081571  18.837146  90.405137
0.009530  0.000000  0.000000  0.000000  -1.714327  -7.269386  -16.733726  63.133651  31.591213  -5.401938  66.932259  27.816653  -9.280990  21.362101  93.914379
0.010165  0.000000  0.000000  0.000000  -1.714327  -7.269386  -12.448012  64.216912  27.749416  -7.588873  66.932259  27.816653  -9.280990  21.362101  93.914379
0.010801  0.000000  0.000000  0.000000  -1.714327  -7.269386  -8.162298  65.104509  23.875585  -9.625986  66.932259  27.816653  -9.280990  21.362101  93.914379
0.011436  0.000000  0.000000  0.000000  -1.714327  -7.269386  -3.876583  65.821268  19.976512  -11.544198  66.932259  27.816653  -9.280990  21.362101  93.914379
0.012071  0.000000  0.000000  0.000000  -1.714327  -7.269386  0.409131  66.386182  16.057822  -13.369425  66.932259  27.816653  -9.280990  21.362101  93.914379
0.012706  0.000000  0.000000  0.000000  -1.714327  -7.269386  4.694845  66.813631  12.124273  -15.123963  66.932259  27.816653  -9.280990  21.362101  93.914379
0.013342  0.000000  0.000000  0.000000  -1.714327  -7.269386  8.980560  67.114076  8.180017  -16.827356  66.932259  27.816653  -9.280990  21.362101  93.914379
0.013977  0.000000  0.000000  0.000000  -1.714327  -7.269386  13.266274  67.294667  4.228753  -18.497283  66.932259  27.816653  -9.280990  21.362101  93.914379
0.014612  0.000000  0.000000  0.000000  -1.714327  -7.269386  17.551988  67.359645  0.273962  -20.150240  66.932259  27.816653  -9.280990  21.362101  93.914379
0.015248  0.000000  0.000000  0.000000  -1.714327  -7.269386  21.837702  67.310509  -3.681047  -21.802103  66.932259  27.816653  -9.280990  21.362101  93.914379
0.015883  0.000000  0.000000  0.000000  -1.714327  -7.269386  26.123417  67.146117  -7.632990  -23.468724  66.932259  27.816653  -9.280990  21.362101  93.914379
0.016518  0.000000  0.000000  0.000000  -1.714327  -7.269386  30.409131  66.862635  -11.578432  -25.166455  66.932259  27.816653  -9.280990  21.362101  93.914379
0.017154  0.000000  0.000000  0.000000  -1.714327  -7.269386  34.694845  66.453323  -15.513698  -26.912785  66.932259  27.816653  -9.280990  21.362101  93.914379
0.017789  0.000000  0.000000  0.000000  -1.714327  -7.269386  38.980560  65.908205  -19.434715  -28.726970  66.932259  27.816653  -9.280990  21.362101  93.914379
0.018424  0.000000  0.000000  0.000000  -1.714327  -7.269386  43.266274  65.213507  -23.336817  -30.630838  66.932259  27.816653  -9.280990  21.362101  93.914379
0.019060  0.000000  0.000000  0.000000  -8.267981  -1.895010  -15.977587  56.528741  18.140027  2.349009  64.549703  43.481532  -38.069180  25.474010  93.206867
0.019695  0.000000  0.000000  0.000000  -8.267981  -1.895010  -11.691873  57.215973  14.550370  -0.091426  64.549703  43.481532  -38.069180  25.474010  93.206867
0.020330  0.000000  0.000000  0.000000  -8.267981  -1.895010  -7.406159  57.737319  10.936250  -2.453418  64.549703  43.481532  -38.069180  25.474010  93.206867
0.020966  0.000000  0.000000  0.000000  -8.267981  -1.895010  -3.120445  58.102899  7.304432  -4.758328  64.549703  43.481532  -38.069180  25.474010  93.206867
0.021601  0.000000  0.000000  0.000000  -8.267981  -1.895010  1.165270  58.319704  3.661111  -7.025987  64.549703  43.481532  -38.069180  25.474010  93.206867
0.022236  0.000000  0.000000  0.000000  -8.267981  -1.895010  5.450984  58.391836  0.012123  -9.275232  64.549703  43.481532  -38.069180  25.474010  93.206867
0.022872  0.000000  0.000000  0.000000  -8.267981  -1.895010  9.736698  58.320650  -3.636889  -11.524416  64.549703  43.481532  -38.069180  25.474010  93.206867
0.023507  0.000000  0.000000  0.000000  -8.267981  -1.895010  14.022413  58.104823  -7.280268  -13.791898  64.549703  43.481532  -38.069180  25.474010  93.206867
0.024142  0.000000  0.000000  0.000000  -8.267981  -1.895010  18.308127  57.740252  -10.912182  -16.096495  64.549703  43.481532  -38.069180  25.474010  93.206867
0.024778  0.000000  0.000000  0.000000  -8.267981  -1.895010  22.593841  57.219970  -14.526442  -18.458039  64.549703  43.481532  -38.069180  25.474010  93.206867
0.025413  0.000000  0.000000  0.000000  -8.267981  -1.895010  26.879555  56.533881  -18.116287  -20.897876  64.549703  43.481532  -38.069180  25.474010  93.206867
0.026048  0.000000  0.000000  0.000000  -8.267981  -1.895010  31.165270  55.668431  -21.674156  -23.439466  64.549703  43.481532  -38.069180  25.474010  93.206867
0.026684  0.000000  0.000000  0.000000  -8.267981  -1.895010  35.450984  54.606158  -25.191372  -26.109052  64.549703  43.481532  -38.069180  25.474010  93.206867
0.027319  0.000000  0.000000  0.000000  -8.267981  -1.895010  39.736698  53.325118  -28.657842  -28.936354  64.549703  43.481532  -38.069180  25.474010  93.206867
0.027954  0.000000  0.000000  0.000000  -8.267981  -1.895010  44.022413  51.798286  -32.061625  -31.955361  64.549703  43.481532  -38.069180  25.474010  93.206867
0.028590  0.000000  0.000000  0.000000  0.379823  -13.613662  -14.791854  64.711747  21.495098  -3.243085  54.916246  48.461167  -12.859071  21.862265  93.936079
0.029225  0.000000  0.000000  0.000000  0.379823  -13.613662  -10.506140  65.354501  17.609492  -5.162396  54.916246  48.461167  -12.859071  21.862265  93.936079
0.029860  0.000000  0.000000  0.000000  0.379823  -13.613662  -6.220426  65.850921  13.706126  -7.000522  54.916246  48.461167  -12.859071  21.862265  93.936079
0.030496  0.000000  0.000000  0.000000  0.379823  -13.613662  -1.934711  66.213151  9.789641  -8.778408  54.916246  48.461167  -12.859071  21.862265  93.936079
